<svg id="Layer_1" data-name="Layer 1" xmlns="http://www.w3.org/2000/svg" viewBox="0 0 275.29 117.27"><defs><style>.cls-1{fill:#fff;}.cls-2{fill:#00a389;}</style></defs><title>Vector Smart Object</title><rect class="cls-1" x="36" y="27.27" width="228" height="83"/><path class="cls-2" d="M340,299.8a1.66,1.66,0,0,0-1.28-.55h-20.7v15h18.49a1.83,1.83,0,0,0,1.29-.55l4.23-4.23a1.66,1.66,0,0,0,.55-1.29v-5.06a1.67,1.67,0,0,0-.55-1.29Z" transform="translate(-259 -246.73)"/><path class="cls-2" d="M401.23,312.86a1.67,1.67,0,0,0,.55-1.29v-8.47a1.68,1.68,0,0,0-.55-1.29l-2-2a1.68,1.68,0,0,0-1.29-.55h-20.7v16.2h20.7a1.66,1.66,0,0,0,1.29-.56Z" transform="translate(-259 -246.73)"/><path class="cls-2" d="M337.65,325.1a1.67,1.67,0,0,0-1.29-.55H318.06v15.09h20.7a1.82,1.82,0,0,0,1.28-.55l2-2a1.65,1.65,0,0,0,.55-1.29v-5a1.65,1.65,0,0,0-.55-1.29Z" transform="translate(-259 -246.73)"/><path class="cls-2" d="M506.14,246.73H259v89.12L287.15,364H534.29V274.88ZM353.66,309.55a6.33,6.33,0,0,1-1.93,4.6l-5.24,5.25,5.24,5.24a6.18,6.18,0,0,1,1.93,4.6v8.46a6.33,6.33,0,0,1-1.93,4.6l-6,6a6,6,0,0,1-4.51,1.84H307V288.75h34.23a6.05,6.05,0,0,1,4.42,1.84l6.07,6.07a6.18,6.18,0,0,1,1.93,4.6v8.28Zm50,40.57-18.12-23.37a1.81,1.81,0,0,0-1.56-.83h-6.72v24.2h-11V288.76H400.4a6,6,0,0,1,4.42,1.84l6.07,6.07a6.17,6.17,0,0,1,1.93,4.6v12.15a6.17,6.17,0,0,1-1.93,4.6l-6.07,6.08a6,6,0,0,1-4.42,1.84h-2.21l19,24.2H403.62Zm55.66-51.61h-11v41.86h11v9.75H426.15v-9.75h11V298.51h-11v-9.75h33.12v9.75Zm23.18,37,3.59,3.59a1.68,1.68,0,0,0,1.29.55h15.18a1.67,1.67,0,0,0,1.29-.55l6.26-6.25,7.45,7.36-8,8a6.3,6.3,0,0,1-4.6,1.93h-20a6.3,6.3,0,0,1-4.6-1.93l-7.55-7.54a6.32,6.32,0,0,1-1.93-4.6V302.83a6.32,6.32,0,0,1,1.93-4.6l7.55-7.54a6.31,6.31,0,0,1,4.6-1.94h20a6.32,6.32,0,0,1,4.6,1.94l8,8-7.45,7.36-6.26-6.26a1.66,1.66,0,0,0-1.29-.55H487.33a1.68,1.68,0,0,0-1.29.55l-3.59,3.59a1.82,1.82,0,0,0-.55,1.29v29.53A1.81,1.81,0,0,0,482.46,335.49Z" transform="translate(-259 -246.73)"/></svg>